<?xml version="1.0" encoding="UTF-8"?>
<svg width="512" height="512" viewBox="0 0 512 512" fill="none" xmlns="http://www.w3.org/2000/svg">
  <path d="M396 124H116C107.163 124 100 131.163 100 140V420C100 428.837 107.163 436 116 436H396C404.837 436 412 428.837 412 420V140C412 131.163 404.837 124 396 124Z" fill="#E6E6E6"/>
  <path d="M372 148H140C135.582 148 132 151.582 132 156V388C132 392.418 135.582 396 140 396H372C376.418 396 380 392.418 380 388V156C380 151.582 376.418 148 372 148Z" fill="#FFFFFF"/>
  <path d="M256 76C245.507 76 237 84.5066 237 95V124H275V95C275 84.5066 266.493 76 256 76Z" fill="#0D6EFD"/>
  <path d="M237 124H275V148H237V124Z" fill="#0D6EFD"/>
  <path d="M180 196H340C344.418 196 348 199.582 348 204V212C348 216.418 344.418 220 340 220H180C175.582 220 172 216.418 172 212V204C172 199.582 175.582 196 180 196Z" fill="#E6E6E6"/>
  <path d="M180 244H340C344.418 244 348 247.582 348 252V260C348 264.418 344.418 268 340 268H180C175.582 268 172 264.418 172 260V252C172 247.582 175.582 244 180 244Z" fill="#E6E6E6"/>
  <path d="M180 292H340C344.418 292 348 295.582 348 300V308C348 312.418 344.418 316 340 316H180C175.582 316 172 312.418 172 308V300C172 295.582 175.582 292 180 292Z" fill="#E6E6E6"/>
  <path d="M180 340H260C264.418 340 268 343.582 268 348V356C268 360.418 264.418 364 260 364H180C175.582 364 172 360.418 172 356V348C172 343.582 175.582 340 180 340Z" fill="#E6E6E6"/>
  <path d="M412 180L452 220L412 260" stroke="#0D6EFD" stroke-width="12" stroke-linecap="round" stroke-linejoin="round"/>
  <path d="M100 180L60 220L100 260" stroke="#0D6EFD" stroke-width="12" stroke-linecap="round" stroke-linejoin="round"/>
  <path d="M452 220H60" stroke="#0D6EFD" stroke-width="12" stroke-linecap="round" stroke-linejoin="round"/>
  <circle cx="380" cy="132" r="32" fill="#FF6B6B"/>
  <path d="M370 122L390 142" stroke="white" stroke-width="8" stroke-linecap="round"/>
  <path d="M390 122L370 142" stroke="white" stroke-width="8" stroke-linecap="round"/>
</svg>
