<?xml version="1.0" encoding="UTF-8"?>
<svg width="512" height="512" viewBox="0 0 512 512" fill="none" xmlns="http://www.w3.org/2000/svg">
  <path d="M256 76C245.507 76 237 84.5066 237 95V124H275V95C275 84.5066 266.493 76 256 76Z" fill="#0D6EFD"/>
  <path d="M237 124H275V148H237V124Z" fill="#0D6EFD"/>
  <path d="M396 124H116C107.163 124 100 131.163 100 140V420C100 428.837 107.163 436 116 436H396C404.837 436 412 428.837 412 420V140C412 131.163 404.837 124 396 124Z" fill="#E6E6E6"/>
  <path d="M372 148H140C135.582 148 132 151.582 132 156V388C132 392.418 135.582 396 140 396H372C376.418 396 380 392.418 380 388V156C380 151.582 376.418 148 372 148Z" fill="#FFFFFF"/>
  <path d="M180 196H340C344.418 196 348 199.582 348 204V212C348 216.418 344.418 220 340 220H180C175.582 220 172 216.418 172 212V204C172 199.582 175.582 196 180 196Z" fill="#E6E6E6"/>
  <path d="M180 244H340C344.418 244 348 247.582 348 252V260C348 264.418 344.418 268 340 268H180C175.582 268 172 264.418 172 260V252C172 247.582 175.582 244 180 244Z" fill="#E6E6E6"/>
  <path d="M180 292H340C344.418 292 348 295.582 348 300V308C348 312.418 344.418 316 340 316H180C175.582 316 172 312.418 172 308V300C172 295.582 175.582 292 180 292Z" fill="#E6E6E6"/>
  <path d="M180 340H260C264.418 340 268 343.582 268 348V356C268 360.418 264.418 364 260 364H180C175.582 364 172 360.418 172 356V348C172 343.582 175.582 340 180 340Z" fill="#E6E6E6"/>
  <circle cx="256" cy="256" r="120" fill="#F8F9FA" fill-opacity="0.5"/>
  <path d="M256 176C211.84 176 176 211.84 176 256C176 300.16 211.84 336 256 336C300.16 336 336 300.16 336 256C336 211.84 300.16 176 256 176ZM256 320C220.656 320 192 291.344 192 256C192 220.656 220.656 192 256 192C291.344 192 320 220.656 320 256C320 291.344 291.344 320 256 320Z" fill="#0D6EFD"/>
  <path d="M296 248H264V216C264 211.6 260.4 208 256 208C251.6 208 248 211.6 248 216V248H216C211.6 248 208 251.6 208 256C208 260.4 211.6 264 216 264H248V296C248 300.4 251.6 304 256 304C260.4 304 264 300.4 264 296V264H296C300.4 264 304 260.4 304 256C304 251.6 300.4 248 296 248Z" fill="#0D6EFD"/>
</svg>
